<?xml version="1.0" encoding="UTF-8"?>
<svg id="Layer_2" data-name="Layer 2" xmlns="http://www.w3.org/2000/svg" viewBox="0 0 134.87 145.3">
  <defs>
    <style>
      .cls-1 {
        fill: #303d4e;
      }

      .cls-2 {
        fill: #5f6a76;
      }

      .cls-3 {
        fill: #572b0f;
      }

      .cls-4 {
        fill: #303e4e;
      }

      .cls-5 {
        fill: #252a35;
      }

      .cls-6 {
        fill: #2f3c4d;
      }

      .cls-7 {
        fill: #f7ad58;
      }

      .cls-8 {
        fill: #2f3c4b;
      }

      .cls-9 {
        fill: #1c2557;
        font-size: 38.55px;
      }

      .cls-9, .cls-10, .cls-11 {
        isolation: isolate;
      }

      .cls-9, .cls-11 {
        font-family: BebasNeue-Regular, 'Bebas Neue';
      }

      .cls-12 {
        fill: #636d7a;
      }

      .cls-13 {
        fill: #2f3d4c;
      }

      .cls-14 {
        fill: #5f6873;
      }

      .cls-15 {
        fill: #f2a955;
      }

      .cls-11 {
        fill: #ee2524;
        font-size: 45.13px;
      }

      .cls-16 {
        fill: #582c0f;
      }

      .cls-17 {
        fill: #fff;
      }

      .cls-18 {
        fill: #be1f41;
      }

      .cls-19 {
        fill: #5d6975;
      }

      .cls-20 {
        fill: #fefcf7;
      }

      .cls-21 {
        fill: #fdd27b;
      }

      .cls-22 {
        fill: #5f6772;
      }

      .cls-23 {
        fill: #2e3b4d;
      }

      .cls-24 {
        fill: #a76628;
      }

      .cls-25 {
        fill: #29313a;
      }

      .cls-26 {
        fill: #636c77;
      }

      .cls-27 {
        fill: #fbd07a;
      }

      .cls-28 {
        fill: #0a2042;
      }

      .cls-29 {
        fill: #050709;
      }

      .cls-30 {
        fill: #f8ac55;
      }
    </style>
  </defs>
  <g id="Layer_1-2" data-name="Layer 1">
    <g>
      <g>
        <path class="cls-3" d="M91.79,34.1c7.29-8.24,16.75-20.14,24.91-27.03,1.97-1.66,2.74-2.19,5.16-1.21,1.37.55,1.48.81,2.54,1.64,1.22.96,2.35,1.8,3.24,3.14,2.76,4.18.04,6.21-2.6,9.37-4.84,5.79-10.15,11.8-15.65,17.8h3.54c5.93-6.44,11.79-12.95,17.59-19.49,4.44-6.04-4.26-11.71-8.63-14.63l-2.12-.33c-3.41.81-5.71,3.95-8.1,6.4-8.38,8.56-17.37,18.2-26.03,28.06h2.87c1.1-1.24,2.19-2.48,3.28-3.71h0Z"/>
        <path class="cls-16" d="M10.18,134.54c.42.59,1.07.95,1.65,1.35,1.35.93,2.08.35,1.36,2.98-2.04.48-2.97-.58-4.38-1.59-1.37-.98-3.82-2.52-3.62-4.46.22-2.08,3.5-.39,4.83-1.26-.26-.43-.48-.91-.72-1.36-.59.95-4.81-.76-5.84,1.57l-.33,2.12c-.27,3.64,3,6.58,6.28,7.52l3.34.53c3.56-1.47,2.14-3.51,2.26-6.48-1.57-.26-2.09-.79-3.15-1.74-.1,1.97-.43.85-1.68.82h0Z"/>
        <path class="cls-29" d="M38.36,109.6c-.35-.06-.72-.12-1.1-.17.36.07.73.13,1.1.17Z"/>
        <path class="cls-29" d="M20.8,128.29c-.25-.05-.5-.08-.75-.12.25.05.5.09.75.12Z"/>
        <path class="cls-29" d="M38.53,108.54c.29-.36.65-.71,1.03-1.06h-2.73c-.35.4-.64.7-.8.76-.33.13-1.51-.27-2.54-.76h-1.22c1.8,1.15,3.86,1.36,6,1.79.87.17.24.12.1.33-.47.69-2.96,3.57-3.57,3.76-.15.05-.75.03-.71-.24l3.3-3.21c-3.01-2.11-4.03,2.36-5.43,2.87-1.22.45-3.6-.89-4.33-1.95l2.89-3.35h-1.06c-5.2,5.9-10.43,11.78-15.7,17.56-1.2,1.32-3.04,2.77-4.08,4-.33.4-.23.98-.35,1.17.94-.05,1.27.61.72,1.36.63,1.03.95,1.36,1.84,2.16.76-.37,2.83.99,3.15,1.74,1.57.26,2.02-1.68,2.97-2.74,7.63-8.47,15.6-16.94,23.62-25.24h-.78c-.81.78-1.68,1.35-2.29,1.06h0ZM15.02,131.42c-1.62,1.62-1.55,2.85-3.52.55-1.56-1.83-1.44-2.9.91-3.75.05-.02.1-.3.19-.27.67.91,1.47,1.87,2.33,2.6.57.49,2.12,1.12,2.2,1.22.98,1.24-1.83-.12-2.12-.34h0ZM17.5,131.5c-.45-.7,2.33-2.11,2.34-3.05-.64-.04-1.55-.44-2.15-.19-1.42.59-.88,3.62-3.38.86-.95-1.05-1.85-2.39.01-3.1.8-.3,1.79.88,2.89,1.25,1.22.41,2.6.27,3.59,1.02-.31.3-2.89,3.85-3.3,3.21h0ZM24.95,123.66c-.9,1.45-2.15,3.22-3.85,3.75l2.94-3.89c-.59-.09-1.25-.15-1.82-.29-.87.96-2.92,3.89-4.14,3.72-.68-.1-2.12-.85-2.68-1.3-.26-.2-.51.03-.27-.53.28-.63,2.75-3.4,3.34-3.73.09-.05.07-.31.42-.2,1.86,1.27,4.02,1.99,6.26,2.18.41.23-.19.27-.2.28h0ZM29.41,119.07c-.66,1.08-3.05,4.16-4.28,3.52l3.37-3.67c-.68-.11-1.49-.16-2.12-.33-.65.69-2.41,3.44-3.07,3.71-.86.36-4.2-1.21-3.98-2.13.17-.67,2.53-3.17,3.3-3.43.21-.07.17-.3.7-.15,1.88.51,4.08,2.62,6.48,1.91.07.08-.29.38-.4.56h0ZM30.54,117.86c-.46.23-.8.11-.56-.4.23-.49,3.13-2.95,2.97-3.11-.61.02-1.94-.52-2.39-.33-.2.08-2.04,2.82-2.87,3.25-.97.5-4.22-.67-4.27-1.5-.04-.57,2.7-3.63,3.39-3.94.64-.29,2.09.84,2.97,1.2.47.19.93.38,1.43.45.1,0,.2.02.31.03.88.1,1.9.19,2.71.58-1.05.87-2.57,3.21-3.69,3.78h0Z"/>
        <path class="cls-29" d="M9.31,130.21c.24.45.46.93.72,1.36.55-.75.22-1.4-.72-1.36Z"/>
        <path class="cls-29" d="M11.87,133.72c1.06.95,1.57,1.48,3.15,1.74-.32-.75-2.39-2.11-3.15-1.74Z"/>
        <path class="cls-21" d="M113.7,11.81c-7.91,8.1-16.3,16.96-24.43,26h1.93c2.74-3,5.46-5.96,8.11-8.87,6.9-7.6,13.82-15.41,21.34-22.34,1.21-.71,2.51-.12,3.09,1.11-.4-.07-.83-.16-1.23-.03-1.77.59-15.27,15.67-17.61,18.24-3.56,3.92-7.18,7.89-10.8,11.89h8.47c7.33-8.13,14.63-16.28,22.03-24.31,1.3-2.36.58-3.69-.2-6l-.49.14c-.51-.77-1.19-1.36-2.05-1.78-.97.2-1.7.11-2.61.66-1.67,1.02-4.06,3.77-5.54,5.29h0Z"/>
        <path class="cls-21" d="M123.91,7.64l.49-.14c-1.06-.83-1.17-1.09-2.54-1.64.86.42,1.54,1.01,2.05,1.78h0Z"/>
        <path class="cls-30" d="M125.94,14.61c.71-1.86.57-3.17,0-4.99,1.65,1.54,2.36,3.4,1.53,5.61-6.57,7.54-13.2,15.11-19.96,22.59h1.08c6.04-6.65,11.94-13.39,17.71-20.17,2.54-2.99,2.91-5.06-.08-8.22-.3-.09-.58-.26-.84-.51.66,1.61.69,3.87-.27,4.95-7.17,8-14.38,15.99-21.61,23.94h2.1c6.94-7.63,13.72-15.4,20.36-23.21h0Z"/>
        <path class="cls-30" d="M125.36,8.92c.26.24.54.42.84.51,2.99,3.15,2.62,5.23.08,8.22-5.77,6.78-11.67,13.52-17.71,20.17h.81c5.51-6,10.81-12.01,15.65-17.8,2.64-3.15,5.36-5.19,2.6-9.37-.89-1.35-2.02-2.19-3.24-3.14.4.32.72.82.96,1.42h0Z"/>
        <path class="cls-30" d="M124.6,13.51c-7.4,8.03-14.7,16.18-22.03,24.31h.91c7.23-7.96,14.43-15.94,21.61-23.94.96-1.08.93-3.35.27-4.95-.36-.33-.68-.8-.96-1.42.79,2.31,1.5,3.64.2,6h0Z"/>
        <path class="cls-30" d="M125.36,8.92c-.24-.59-.57-1.1-.96-1.42.29.61.61,1.08.96,1.42Z"/>
        <path class="cls-7" d="M118.38,6.45c1.07-.55,2.23-.75,3.47-.59-1.35-.18-2.29-.19-3.47.59Z"/>
        <path class="cls-7" d="M115.67,8.84c.16-.22.33-.41.5-.61-.69.63-1.35,1.28-1.92,1.86-8.67,8.69-17.21,18.17-25.52,27.72h.05c8.83-9.91,17.91-19.58,26.9-28.97h0Z"/>
        <path class="cls-7" d="M114.25,10.1c.57-.57,1.24-1.23,1.92-1.86.69-.79,1.43-1.38,2.21-1.79,1.18-.78,2.12-.77,3.47-.59-2.42-.98-3.19-.44-5.16,1.21-8.17,6.89-17.63,18.79-24.91,27.03-1.09,1.23-2.18,2.47-3.28,3.71h.22c8.31-9.55,16.85-19.03,25.52-27.72h0Z"/>
        <path class="cls-7" d="M118.38,6.45s0,0-.01,0c-.69.46-1.45,1.1-2.2,1.78-.17.19-.33.39-.5.61-8.99,9.39-18.07,19.06-26.9,28.97h.5c8.13-9.04,16.52-17.9,24.43-26,1.48-1.52,3.87-4.27,5.54-5.29.91-.56,1.64-.46,2.61-.66-1.25-.16-2.41.04-3.47.59h0Z"/>
        <path class="cls-7" d="M118.38,6.45c-.79.4-1.52,1-2.21,1.79.74-.68,1.51-1.32,2.2-1.78,0,0,0,0,.01,0Z"/>
        <path class="cls-27" d="M11.11,134.1l.66-.33c-.7.29-1.72-.65-1.89-1.47-.22.13-.59.14-.96.15-5.34-.95-2.78,2.38-.22,3.99l.12.84c1.45.16,3.44.95,3.02-1.39-1.42.94-3.24-2.2-.73-1.79h0Z"/>
        <path class="cls-27" d="M11.11,134.1c-2.52-.41-.69,2.73.73,1.79-.58-.4-1.23-.76-1.65-1.35,1.25.03,1.58,1.14,1.68-.82-.03.02-.07.04-.1.05,0,0-.66.33-.66.33Z"/>
        <path class="cls-27" d="M5.2,132.82c-.2,1.94,2.25,3.48,3.62,4.46l-.12-.84c-2.56-1.62-5.12-4.94.22-3.99.38,0,.74-.02.96-.15-.06-.27-.02-.54.15-.73-1.33.87-4.61-.82-4.83,1.26h0Z"/>
        <path class="cls-27" d="M9.87,132.3c.17.82,1.19,1.76,1.89,1.47l.1-.05c-.89-.8-1.2-1.12-1.84-2.16.14.4.05.61-.15.73h0Z"/>
        <path class="cls-27" d="M9.87,132.3c.21-.12.29-.33.15-.73-.17.2-.21.46-.15.73Z"/>
        <path class="cls-27" d="M11.87,133.72l-.1.05s.07-.03.1-.05Z"/>
        <path class="cls-15" d="M12.36,136.99c.12.92-.94,1.2-2.07.95,1.7.52,3.71.56,2.07-.95Z"/>
        <path class="cls-15" d="M10.29,137.93c-.51-.11-1.04-.34-1.47-.65,1.41,1.01,2.33,2.07,4.38,1.59.72-2.63-.01-2.05-1.36-2.98.32.44.48.8.52,1.1,1.64,1.51-.37,1.46-2.07.95h0Z"/>
        <path class="cls-15" d="M8.82,137.28c.34.24.89.48,1.47.65,1.13.25,2.19-.02,2.07-.95-.08-.08-.17-.15-.27-.24l-.25-.86c.42,2.34-1.57,1.55-3.02,1.39Z"/>
        <path class="cls-15" d="M12.36,136.99c-.04-.3-.2-.66-.52-1.1l.25.86c.1.08.19.16.27.24h0Z"/>
        <path class="cls-15" d="M8.82,137.28c.43.32.96.54,1.47.65-.58-.18-1.12-.41-1.47-.65Z"/>
        <path class="cls-20" d="M104.9,25.93c2.34-2.58,15.84-17.65,17.61-18.24.4-.14.83-.04,1.23.03-.59-1.22-1.88-1.82-3.09-1.11-7.52,6.93-14.43,14.74-21.34,22.34-2.64,2.91-5.36,5.87-8.11,8.87h2.9c3.62-4,7.24-7.96,10.8-11.89h0Z"/>
        <path class="cls-24" d="M127.46,15.23c.84-2.21.13-4.07-1.53-5.61.57,1.82.71,3.14,0,4.99-6.64,7.81-13.42,15.57-20.36,23.21h1.93c6.76-7.48,13.39-15.05,19.96-22.59h0Z"/>
        <path class="cls-1" d="M31.22,113.47c.1.01.2.03.31.03-.1,0-.2-.02-.31-.03Z"/>
        <path class="cls-1" d="M30.73,113.71c-1.6-.19-2.75-.83-3.92-1.88-.69.31-3.43,3.37-3.39,3.94.05.83,3.3,2,4.27,1.5.83-.42,2.67-3.16,2.87-3.25.44-.19,1.77.35,2.39.33.16.16-2.74,2.62-2.97,3.11-.24.51.1.64.56.4,1.12-.57,2.64-2.91,3.69-3.78-.81-.39-1.82-.48-2.71-.58-.05,0-.4.25-.79.21Z"/>
        <path class="cls-8" d="M31.95,112.79c1.4-.51,2.41-4.99,5.43-2.87l-3.3,3.21c-.04.27.56.28.71.24.62-.19,3.1-3.07,3.57-3.76-.37-.05-.74-.1-1.1-.17-2.01-.29-4.28-.57-5.72-1.95h-1.03l-2.89,3.35c.73,1.06,3.12,2.4,4.33,1.95h0Z"/>
        <path class="cls-23" d="M36.02,108.24c.16-.06.45-.36.8-.76h-3.34c1.03.48,2.21.88,2.54.76h0Z"/>
        <path class="cls-4" d="M19.32,120.19c-.23.91,3.12,2.48,3.98,2.13.66-.28,2.43-3.03,3.07-3.71-1.49-.41-2.45-1.12-3.75-1.84-.77.26-3.13,2.75-3.3,3.43h0Z"/>
        <path class="cls-6" d="M15.13,125.12c-.24.55,0,.32.27.53.57.45,2,1.2,2.68,1.3,1.22.18,3.27-2.76,4.14-3.72-1.46-.36-2.61-.85-3.75-1.84-.59.33-3.06,3.1-3.34,3.73h0Z"/>
        <path class="cls-13" d="M14.32,126.02c-1.86.71-.96,2.05-.01,3.1,2.5,2.76,1.97-.27,3.38-.86.6-.25,1.51.15,2.15.19,0,.94-2.79,2.35-2.34,3.05.41.64,3-2.9,3.3-3.21-.25-.04-.5-.08-.75-.12-2.07-.3-4.32-.38-5.73-2.14h0Z"/>
        <path class="cls-23" d="M12.42,128.21c-2.35.85-2.48,1.92-.91,3.75,1.96,2.3,1.89,1.08,3.52-.55-.93-.68-2.08-2.16-2.6-3.21h0Z"/>
        <path class="cls-5" d="M38.53,108.54c.61.29,1.48-.28,2.29-1.06h-1.27c-.38.35-.74.7-1.03,1.06h0Z"/>
        <path class="cls-25" d="M25.12,122.6c1.23.64,3.63-2.44,4.28-3.52l-.91-.14-3.37,3.67h0Z"/>
        <path class="cls-6" d="M21.1,127.41c1.7-.53,2.96-2.3,3.85-3.75l-.91-.14-2.94,3.89h0Z"/>
        <path class="cls-2" d="M37.26,109.43c.38.06.75.11,1.1.17.14-.21.77-.15-.1-.33-2.14-.43-4.19-.64-6-1.79h-.31c1.61.94,3.37,1.59,5.3,1.95h0Z"/>
        <path class="cls-2" d="M31.54,107.48c1.44,1.37,3.71,1.66,5.72,1.95-1.92-.36-3.69-1.01-5.3-1.95h-.42Z"/>
        <path class="cls-19" d="M23.32,116.61c-.54-.15-.49.08-.7.15,1.27.23,2.84,1.04,3.75,1.84.64.17,1.44.23,2.12.33.17-.22.81-.19.91.14.1-.17.47-.48.4-.56-2.4.71-4.6-1.4-6.48-1.91h0Z"/>
        <path class="cls-19" d="M26.37,118.59c-.92-.8-2.48-1.61-3.75-1.84,1.3.72,2.26,1.43,3.75,1.84Z"/>
        <path class="cls-19" d="M28.5,118.93l.91.14c-.1-.33-.73-.36-.91-.14Z"/>
        <path class="cls-22" d="M14.95,130.53c-.86-.73-1.67-1.69-2.33-2.6-.09-.02-.15.26-.19.27.81.99,1.71,1.94,2.7,2.85l-.09.36c.3.22,3.11,1.57,2.12.34-.08-.1-1.62-.73-2.2-1.22h0Z"/>
        <path class="cls-22" d="M12.42,128.21c.53,1.04,1.68,2.53,2.6,3.21l.09-.36c-.98-.91-1.88-1.86-2.7-2.85h0Z"/>
        <path class="cls-26" d="M25.15,123.38c-2.24-.19-4.4-.91-6.26-2.18-.35-.11-.33.15-.42.2,1.21.55,2.6,1.19,3.75,1.84.57.14,1.23.19,1.82.29.15-.22.73-.1.91.14,0-.01.61-.05.2-.28h0Z"/>
        <path class="cls-26" d="M22.22,123.23c-1.16-.64-2.55-1.28-3.75-1.84,1.15.98,2.29,1.47,3.75,1.84Z"/>
        <path class="cls-26" d="M24.04,123.51l.91.14c-.18-.24-.76-.36-.91-.14Z"/>
        <path class="cls-14" d="M14.32,126.02c1.75,1.05,3.66,1.77,5.73,2.14.25.04.5.08.75.12-.99-.74-2.36-.6-3.59-1.02-1.11-.38-2.1-1.55-2.89-1.25h0Z"/>
        <path class="cls-14" d="M20.05,128.16c-2.07-.38-3.98-1.09-5.73-2.14,1.42,1.76,3.66,1.84,5.73,2.14Z"/>
        <path class="cls-12" d="M29.79,113.02c-.88-.35-2.33-1.49-2.97-1.2,1.44.95,2.91,1.5,4.41,1.65-.5-.07-.96-.26-1.43-.45h0Z"/>
        <path class="cls-12" d="M31.53,113.5c-.1,0-.21-.01-.31-.03-1.5-.15-2.97-.69-4.41-1.65,1.17,1.05,2.32,1.69,3.92,1.88.39.05.75-.21.79-.21h0Z"/>
        <path class="cls-3" d="M7.03,17.47c-2.76-3.31-5.62-5.44-2.73-9.82.93-1.41,2.12-2.3,3.4-3.3,1.11-.87,1.22-1.14,2.66-1.72,2.54-1.02,3.35-.47,5.41,1.27,8.56,7.22,18.48,19.7,26.12,28.34,1.64,1.85,3.28,3.71,4.92,5.58h3c-9.53-10.93-19.5-21.65-28.77-31.11-2.51-2.56-4.91-5.85-8.5-6.71l-2.23.35C5.76,3.41-3.37,9.36,1.29,15.69c6.59,7.43,13.25,14.82,20,22.13h3.71c-6.33-6.85-12.44-13.73-17.96-20.35Z"/>
        <path class="cls-16" d="M132.68,135.74c.21,2.03-2.35,3.65-3.79,4.67-1.48,1.05-2.45,2.17-4.59,1.67-.76-2.76.02-2.15,1.43-3.12.61-.42,1.29-.8,1.73-1.42-1.31.03-1.66,1.2-1.76-.86-1.11.99-1.65,1.55-3.3,1.82.13,3.12-1.36,5.25,2.38,6.8l3.5-.55c3.44-.99,6.87-4.06,6.58-7.88l-.35-2.23c-1.08-2.44-5.51-.65-6.13-1.64-.24.47-.48.97-.75,1.42,1.39.91,4.84-.86,5.06,1.32h0Z"/>
        <path class="cls-29" d="M97.92,111.39c.4-.05.8-.11,1.18-.18-.41.06-.8.12-1.18.18Z"/>
        <path class="cls-29" d="M104.74,108.04c-.27.62-3.76,2.16-4.38,1.92-.35-.14-1.36-1.4-2.26-2.48h-3.15c.76.96,2.02,1.84,2.78,2.8-1.05.5-2.84-1.42-3.87-2.8h-.98c8.96,9.23,17.88,18.69,26.4,28.14,1,1.11,1.47,3.14,3.12,2.87.33-.79,2.5-2.21,3.3-1.82.93-.83,1.26-1.18,1.92-2.26-.58-.78-.23-1.47.75-1.42-.12-.2-.01-.81-.36-1.23-1.09-1.29-3.02-2.81-4.28-4.19-6.03-6.61-12.01-13.34-17.95-20.09h-1.08c.08.22.1.41.04.56h0ZM125.11,130.9c2.47.89,2.59,2.01.96,3.93-2.06,2.41-1.99,1.13-3.69-.57-.31.23-3.26,1.65-2.23.35.08-.1,1.7-.77,2.31-1.28.9-.77,1.75-1.77,2.45-2.72.09-.03.15.27.2.29h0ZM123.12,128.61c1.95.74,1.01,2.15.01,3.25-2.63,2.89-2.06-.28-3.55-.9-.63-.26-1.58.16-2.25.2,0,.98,2.92,2.47,2.46,3.19-.43.67-3.14-3.05-3.46-3.37,1.04-.78,2.48-.63,3.76-1.06,1.16-.39,2.2-1.63,3.04-1.31h0ZM118.77,123.75c.62.34,3.21,3.24,3.5,3.91.25.58,0,.34-.28.55-.59.47-2.1,1.26-2.81,1.36-1.28.18-3.43-2.89-4.34-3.9-.6.15-1.28.2-1.91.3l3.08,4.08c-1.78-.55-3.1-2.41-4.04-3.93,0-.01-.64-.05-.21-.3,2.35-.2,4.61-.96,6.56-2.29.37-.12.35.16.44.21h0ZM114.42,118.9c.81.27,3.28,2.89,3.46,3.59.24.96-3.27,2.6-4.17,2.23-.7-.29-2.55-3.17-3.22-3.9-.67.18-1.52.24-2.23.35l3.54,3.85c-1.29.67-3.8-2.56-4.49-3.69-.11-.18-.49-.5-.42-.58,2.52.74,4.82-1.47,6.8-2,.56-.15.51.08.74.16h0ZM110.02,113.72c.73.33,3.6,3.54,3.56,4.13-.06.88-3.46,2.1-4.48,1.58-.87-.44-2.8-3.32-3.01-3.41-.46-.2-1.86.36-2.5.34-.16.17,2.88,2.75,3.12,3.26.25.53-.11.66-.59.42-1.18-.59-2.77-3.05-3.87-3.96.85-.4,1.91-.5,2.84-.61.11,0,.21-.02.32-.03.52-.08,1-.27,1.5-.47.93-.37,2.44-1.56,3.12-1.25h0ZM105.61,108.55l3.56,4.13c-.77,1.12-3.27,2.52-4.54,2.05-1.46-.54-2.53-5.23-5.69-3.01l3.46,3.37c.05.28-.59.3-.74.25-.64-.2-3.25-3.22-3.75-3.94-.15-.22-.81-.16.1-.34,2.69-.54,5.27-.75,7.41-2.75l.19.24h0Z"/>
        <path class="cls-29" d="M116.32,130.98c.26-.04.53-.08.79-.13-.26.04-.53.08-.79.13Z"/>
        <path class="cls-29" d="M127.62,134.42c.27-.45.51-.96.75-1.42-.98-.05-1.33.64-.75,1.42Z"/>
        <path class="cls-29" d="M122.4,138.5c1.65-.27,2.19-.83,3.3-1.82-.8-.39-2.97,1.04-3.3,1.82Z"/>
        <path class="cls-21" d="M7.5,10.64c8.27,8.98,16.43,18.1,24.62,27.18h8.88c-4.31-4.76-8.61-9.49-12.85-14.15-2.46-2.7-16.61-18.51-18.46-19.13-.42-.14-.87-.04-1.29.03.62-1.28,1.98-1.9,3.24-1.16,7.88,7.27,15.14,15.45,22.37,23.42,3.27,3.6,6.65,7.27,10.05,10.99h2c-8.99-10.06-18.35-19.95-27.13-28.95-1.55-1.6-4.06-4.47-5.81-5.54-.96-.58-1.72-.48-2.74-.7-.9.44-1.62,1.06-2.15,1.86l-.51-.14c-.82,2.42-1.57,3.81-.21,6.29h0Z"/>
        <path class="cls-21" d="M10.37,2.63c-1.44.58-1.55.85-2.66,1.72l.51.14c.53-.8,1.25-1.43,2.15-1.86Z"/>
        <path class="cls-30" d="M4.5,12.44c-.88-2.32-.13-4.27,1.6-5.88-.6,1.91-.74,3.29,0,5.23,7.45,8.77,15.08,17.47,22.89,26.02h2.19C23.08,28.92,15.01,19.98,6.99,11.03c-1.01-1.13-.98-3.51-.29-5.19-.27.26-.57.44-.88.53-3.13,3.31-2.75,5.48-.08,8.61,6.54,7.68,13.23,15.32,20.1,22.83h1.12c-7.62-8.39-15.08-16.9-22.45-25.37h0Z"/>
        <path class="cls-30" d="M5.73,14.98c-2.66-3.13-3.05-5.31.08-8.61.32-.1.61-.28.88-.53.25-.62.6-1.15,1.01-1.48-1.28,1-2.47,1.88-3.4,3.3-2.89,4.38-.04,6.51,2.73,9.82,5.53,6.62,11.64,13.5,17.96,20.35h.84c-6.87-7.52-13.56-15.15-20.1-22.83h0Z"/>
        <path class="cls-30" d="M6.7,5.83c-.69,1.68-.72,4.06.29,5.19,8.03,8.95,16.09,17.89,24.19,26.79h.94C23.92,28.74,15.77,19.62,7.5,10.64c-1.36-2.48-.61-3.87.21-6.29-.3.64-.64,1.13-1.01,1.48h0Z"/>
        <path class="cls-30" d="M6.7,5.83c.37-.35.71-.84,1.01-1.48-.41.33-.76.86-1.01,1.48Z"/>
        <path class="cls-7" d="M18.35,7.06c-.6-.6-1.3-1.29-2.02-1.95.18.2.35.41.52.64,9.93,10.38,19.97,21.08,29.7,32.06h.02c-9.18-10.58-18.62-21.12-28.22-30.75h0Z"/>
        <path class="cls-7" d="M14.02,3.24c-1.24-.82-2.23-.81-3.64-.62,1.31-.17,2.52.04,3.64.62Z"/>
        <path class="cls-7" d="M14.02,3.24c.82.42,1.6,1.05,2.32,1.87.72.66,1.42,1.35,2.02,1.95,9.6,9.63,19.05,20.17,28.22,30.75h.25c-1.64-1.87-3.29-3.73-4.92-5.58C34.26,23.6,24.34,11.12,15.78,3.9c-2.06-1.74-2.87-2.3-5.41-1.27,1.42-.19,2.4-.2,3.64.62h0Z"/>
        <path class="cls-7" d="M18.93,8.87c8.78,9,18.13,18.89,27.13,28.95h.5c-9.73-10.98-19.77-21.68-29.7-32.06-.17-.23-.34-.43-.52-.64-.78-.71-1.58-1.39-2.31-1.87,0,0,0,0-.01,0-1.12-.58-2.34-.79-3.64-.62,1.02.21,1.78.11,2.74.7,1.76,1.07,4.26,3.95,5.81,5.54Z"/>
        <path class="cls-7" d="M14.02,3.24s0,0,.01,0c.72.48,1.52,1.15,2.31,1.87-.72-.82-1.5-1.45-2.32-1.87h0Z"/>
        <path class="cls-27" d="M128.79,135.35c-.4,0-.78-.02-1.01-.16-.18.86-1.25,1.85-1.98,1.54l.69.35c2.64-.43.73,2.86-.76,1.87-.44,2.45,1.64,1.63,3.16,1.46l.13-.88c2.69-1.69,5.37-5.18-.23-4.19h0Z"/>
        <path class="cls-27" d="M127.46,137.54c-.44.62-1.12,1-1.73,1.42,1.49.98,3.4-2.31.76-1.87l-.69-.35s-.07-.03-.1-.05c.1,2.06.46.89,1.76.86h0Z"/>
        <path class="cls-27" d="M127.78,135.19c.23.13.61.15,1.01.16,5.6-.99,2.91,2.49.23,4.19l-.13.88c1.44-1.03,4-2.64,3.79-4.67-.23-2.18-3.67-.41-5.06-1.32.18.21.22.48.16.77h0Z"/>
        <path class="cls-27" d="M127.78,135.19c-.22-.12-.31-.35-.16-.77-.66,1.08-.99,1.43-1.92,2.26l.1.05c.73.3,1.8-.68,1.98-1.54h0Z"/>
        <path class="cls-27" d="M125.69,136.68s.07.04.1.05l-.1-.05Z"/>
        <path class="cls-27" d="M127.78,135.19c.06-.29.02-.56-.16-.77-.15.42-.06.64.16.77Z"/>
        <path class="cls-15" d="M127.35,141.1c-1.18.26-2.3-.02-2.17-.99-1.72,1.58.39,1.53,2.17.99Z"/>
        <path class="cls-15" d="M125.18,140.11c.04-.31.21-.69.55-1.15-1.41.97-2.18.36-1.43,3.12,2.14.5,3.11-.61,4.59-1.67-.45.33-1,.57-1.54.69-1.78.54-3.89.59-2.17-.99h0Z"/>
        <path class="cls-15" d="M125.73,138.95l-.26.9c-.1.09-.2.17-.28.25-.13.97.99,1.25,2.17.99.61-.19,1.18-.43,1.54-.69-1.52.17-3.61.99-3.16-1.46Z"/>
        <path class="cls-15" d="M125.46,139.86l.26-.9c-.34.46-.51.84-.55,1.15.08-.08.18-.16.28-.25h0Z"/>
        <path class="cls-15" d="M128.89,140.41c-.36.26-.93.5-1.54.69.54-.12,1.09-.35,1.54-.69Z"/>
        <path class="cls-20" d="M34.01,26.83c-7.24-7.97-14.49-16.16-22.37-23.42-1.27-.74-2.63-.12-3.24,1.16.42-.07.87-.17,1.29-.03,1.85.62,16.01,16.43,18.46,19.13,4.24,4.66,8.54,9.39,12.85,14.15h3.06c-3.4-3.72-6.78-7.39-10.05-10.99h0Z"/>
        <path class="cls-24" d="M6.09,11.79c-.74-1.95-.6-3.32,0-5.23-1.73,1.62-2.48,3.56-1.6,5.88,7.38,8.47,14.84,16.98,22.45,25.37h2.03c-7.81-8.55-15.44-17.25-22.89-26.02Z"/>
        <path class="cls-1" d="M105.08,115.48c-.93.11-1.99.2-2.84.61,1.11.91,2.69,3.37,3.87,3.96.48.24.84.11.59-.42-.24-.51-3.28-3.09-3.12-3.26.64.02,2.04-.54,2.5-.34.21.09,2.14,2.96,3.01,3.41,1.02.52,4.42-.7,4.48-1.58.04-.59-2.83-3.81-3.56-4.13-1.22,1.11-2.43,1.77-4.11,1.97-.41.05-.78-.22-.83-.22h0Z"/>
        <path class="cls-1" d="M105.08,115.48c.11,0,.22-.02.32-.03-.11,0-.21.02-.32.03Z"/>
        <path class="cls-8" d="M99.1,111.21c-.39.07-.78.14-1.18.18.49.73,3.1,3.75,3.75,3.94.16.05.79.03.74-.25l-3.46-3.37c3.16-2.22,4.23,2.48,5.69,3.01,1.28.47,3.77-.93,4.54-2.05l-3.56-4.13c-1.42,1.99-4.14,2.32-6.52,2.66h0Z"/>
        <path class="cls-23" d="M100.36,109.96c.62.24,4.11-1.3,4.38-1.92.06-.14.04-.33-.04-.56h-6.6c.9,1.07,1.91,2.34,2.26,2.48h0Z"/>
        <path class="cls-4" d="M113.71,124.72c.9.38,4.41-1.27,4.17-2.23-.17-.71-2.65-3.32-3.46-3.59-1.36.75-2.37,1.5-3.93,1.92.68.72,2.53,3.61,3.22,3.9Z"/>
        <path class="cls-6" d="M119.18,129.58c.72-.1,2.22-.89,2.81-1.36.27-.21.53.03.28-.55-.29-.66-2.88-3.57-3.5-3.91-1.2,1.03-2.4,1.55-3.93,1.92.91,1,3.06,4.08,4.34,3.9h0Z"/>
        <path class="cls-13" d="M117.11,130.86c-.26.05-.52.09-.79.13.32.32,3.04,4.03,3.46,3.37.47-.73-2.45-2.21-2.46-3.19.67-.05,1.63-.46,2.25-.2,1.49.62.92,3.8,3.55.9,1-1.1,1.94-2.51-.01-3.25-1.48,1.84-3.84,1.93-6.01,2.25Z"/>
        <path class="cls-23" d="M122.38,134.27c1.7,1.7,1.63,2.99,3.69.57,1.64-1.92,1.51-3.04-.96-3.93-.56,1.1-1.76,2.65-2.73,3.36h0Z"/>
        <path class="cls-5" d="M97.74,110.28c-.76-.96-2.02-1.84-2.78-2.8h-1.09c1.04,1.38,2.82,3.3,3.87,2.8h0Z"/>
        <path class="cls-25" d="M111.79,125.01l-3.54-3.85-.96.15c.69,1.13,3.2,4.36,4.49,3.69Z"/>
        <path class="cls-6" d="M116.01,130.06l-3.08-4.08-.96.15c.94,1.52,2.25,3.38,4.04,3.93Z"/>
        <path class="cls-2" d="M97.92,111.39c.38-.07.78-.13,1.18-.18,2.41-.45,4.58-1.34,6.52-2.66l-.19-.24c-2.14,1.99-4.71,2.21-7.41,2.75-.91.18-.25.13-.1.34h0Z"/>
        <path class="cls-2" d="M105.61,108.55c-1.94,1.32-4.11,2.21-6.52,2.66,2.38-.34,5.1-.67,6.52-2.66Z"/>
        <path class="cls-19" d="M106.89,120.74c-.08.08.31.4.42.58.1-.35.77-.38.96-.15.71-.11,1.56-.17,2.23-.35.96-.84,2.6-1.69,3.93-1.92-.22-.08-.17-.31-.74-.16-1.97.53-4.28,2.75-6.8,2h0Z"/>
        <path class="cls-19" d="M114.42,118.9c-1.33.24-2.97,1.09-3.93,1.92,1.56-.43,2.57-1.18,3.93-1.92Z"/>
        <path class="cls-19" d="M107.3,121.32l.96-.15c-.18-.23-.85-.2-.96.15Z"/>
        <path class="cls-22" d="M122.46,133.34c-.6.51-2.22,1.18-2.31,1.28-1.03,1.3,1.92-.13,2.23-.35l-.1-.37c1.03-.96,1.97-1.95,2.83-2.99-.05-.02-.11-.31-.2-.29-.7.96-1.55,1.96-2.45,2.72h0Z"/>
        <path class="cls-22" d="M122.28,133.89l.1.37c.97-.71,2.17-2.27,2.73-3.36-.85,1.04-1.8,2.03-2.83,2.99h0Z"/>
        <path class="cls-26" d="M111.97,126.13c.19-.25.8-.38.96-.15.62-.1,1.31-.15,1.91-.3,1.21-.67,2.67-1.35,3.93-1.92-.1-.05-.08-.33-.44-.21-1.95,1.33-4.22,2.09-6.56,2.29-.43.24.2.28.21.3h0Z"/>
        <path class="cls-26" d="M118.77,123.75c-1.27.58-2.72,1.25-3.93,1.92,1.53-.38,2.73-.89,3.93-1.92Z"/>
        <path class="cls-26" d="M111.97,126.13l.96-.15c-.16-.23-.76-.1-.96.15Z"/>
        <path class="cls-14" d="M116.32,130.98c.26-.05.52-.09.79-.13,2.17-.39,4.17-1.14,6.01-2.25-.84-.32-1.87.92-3.04,1.31-1.28.43-2.73.29-3.76,1.06h0Z"/>
        <path class="cls-14" d="M123.12,128.61c-1.84,1.11-3.84,1.85-6.01,2.25,2.17-.32,4.53-.4,6.01-2.25Z"/>
        <path class="cls-12" d="M105.4,115.45c1.57-.16,3.11-.72,4.62-1.72-.68-.3-2.19.88-3.12,1.25-.49.2-.98.4-1.5.47h0Z"/>
        <path class="cls-12" d="M105.08,115.48s.42.27.83.22c1.67-.2,2.88-.87,4.11-1.97-1.51,1-3.05,1.57-4.62,1.72-.1.01-.21.03-.32.03h0Z"/>
        <path class="cls-17" d="M46.57,37.82h-.02c.32.36.64.72.95,1.07-.31-.36-.62-.72-.93-1.07h0Z"/>
      </g>
      <g class="cls-10">
        <text class="cls-11" transform="translate(.8 72.51)"><tspan x="0" y="0">HOMERUN</tspan></text>
      </g>
      <g class="cls-10">
        <text class="cls-9" transform="translate(1.2 103.44)"><tspan x="0" y="0">CHALLENGE</tspan></text>
      </g>
      <g>
        <rect class="cls-17" x="54.75" y="12.08" width="25.36" height="13.67"/>
        <path class="cls-28" d="M56.75,25.02c-.59-.05-1.1-.5-1.22-1.08-.07-3.28-.01-6.56-.03-9.84.07-.71.61-1.21,1.32-1.26h13.23c1.44,1.81,2.82,3.67,4.24,5.5.03.03.02.06.01.1-.03.19-.14.41-.16.61l-.67-.33c-.85-.32-1.89-.08-2.78-.15-.47-.04-.34-.66-.33-.99.08-.02.24.04.26-.04.03-.11.02-.71.01-.86-.04-.7-.32-1.46-.89-1.9-1.11-.84-3.09-1.08-4.06.07-.39.46-.5,1.05-.56,1.64-.44.35-.95.63-1.39.97-.02.01-.04,0-.03.05h1.75l.05.3c-.12.28-.28.55-.4.83-.03.07-.14.27-.07.33s.52,0,.64.02c.1.15.26.8.11.91-.04.03-.18.06-.24.09-.74.36-1.13,1.11-1.36,1.86-.22.73-.29,1.51-.29,2.27h1.04c.11.28.35.54.47.81.01.02.03.04.02.08h-8.67,0Z"/>
        <path class="cls-18" d="M75.36,25.02v-.91h2.14c.23,0,.6-.41.72-.58.14-.2.47-.76.48-.99,0-.16-.4-.54-.5-.72-.11-.18-.15-.4-.25-.57-.15-.26-.45-.33-.69-.49-.07-.04-.39-.27-.42-.32-.07-.12.02-.43-.03-.56-.05-.13-.28-.31-.43-.28,0-.08.02-.18-.01-.25,0-.01-.18-.24-.19-.25-.05-.03-.21-.04-.22-.05-.01-.01,0-.21,0-.26,0-.01-.15-.21-.16-.22-.1-.09-.28,0-.37-.12l-3.35-5.61h6.05c.51,0,1.11.58,1.18,1.07.07,3.26,0,6.52.03,9.78-.05.77-.66,1.31-1.43,1.32h-2.57,0Z"/>
        <path class="cls-17" d="M58.15,21.2c1.32-.21,1.5,1.69.35,1.85-1.31.18-1.45-1.68-.35-1.85Z"/>
      </g>
    </g>
  </g>
</svg>